HIERARCHY
ROOT pelvis
{
	OFFSET 0.000000 0.000000 0.679986
	CHANNELS 6 Xposition Yposition Zposition Xrotation Yrotation Zrotation
	JOINT spine
	{
		OFFSET 0.000000 0.000000 0.000000
		CHANNELS 6 Xposition Yposition Zposition Xrotation Yrotation Zrotation
		JOINT spine.001
		{
			OFFSET 0.000000 -0.012678 0.241904
			CHANNELS 3 Xrotation Yrotation Zrotation
			JOINT neck
			{
				OFFSET 0.000000 0.029521 0.240431
				CHANNELS 6 Xposition Yposition Zposition Xrotation Yrotation Zrotation
				JOINT face
				{
					OFFSET 0.000000 0.003156 0.180812
					CHANNELS 6 Xposition Yposition Zposition Xrotation Yrotation Zrotation
					End Site
					{
						OFFSET 0.000000 -0.023094 -0.007106
					}
				}
			}
			JOINT shoulder.L
			{
				OFFSET 0.000000 0.029521 0.240431
				CHANNELS 6 Xposition Yposition Zposition Yrotation Xrotation Zrotation
				JOINT upper_arm.L
				{
					OFFSET 0.145035 0.000000 0.000000
					CHANNELS 6 Xposition Yposition Zposition Xrotation Yrotation Zrotation
					JOINT forearm.L
					{
						OFFSET 0.246650 0.000105 0.000870
						CHANNELS 6 Xposition Yposition Zposition Xrotation Yrotation Zrotation
						End Site
						{
							OFFSET 0.221395 -0.003768 -0.001200
						}
					}
				}
			}
			JOINT shoulder.R
			{
				OFFSET 0.000000 0.029521 0.240431
				CHANNELS 6 Xposition Yposition Zposition Yrotation Xrotation Zrotation
				JOINT upper_arm.R
				{
					OFFSET -0.145035 0.000000 0.000000
					CHANNELS 6 Xposition Yposition Zposition Xrotation Yrotation Zrotation
					JOINT forearm.R
					{
						OFFSET -0.244526 0.000105 0.000870
						CHANNELS 6 Xposition Yposition Zposition Xrotation Yrotation Zrotation
						End Site
						{
							OFFSET -0.221103 -0.003763 -0.001200
						}
					}
				}
			}
		}
	}
	JOINT pelvis.L
	{
		OFFSET 0.000000 0.000000 0.000000
		CHANNELS 6 Xposition Yposition Zposition Yrotation Xrotation Zrotation
		End Site
		{
			OFFSET 0.090921 0.000000 0.000000
		}
	}
	JOINT pelvis.R
	{
		OFFSET 0.000000 0.000000 0.000000
		CHANNELS 6 Xposition Yposition Zposition Yrotation Xrotation Zrotation
		End Site
		{
			OFFSET -0.090921 0.000000 0.000000
		}
	}
	JOINT thigh.L
	{
		OFFSET 0.090921 0.000000 0.000000
		CHANNELS 6 Xposition Yposition Zposition Xrotation Yrotation Zrotation
		JOINT shin.L
		{
			OFFSET 0.016946 0.000000 -0.323345
			CHANNELS 6 Xposition Yposition Zposition Xrotation Yrotation Zrotation
			JOINT foot.L
			{
				OFFSET 0.015355 0.000000 -0.292990
				CHANNELS 3 Xrotation Yrotation Zrotation
				End Site
				{
					OFFSET 0.013738 -0.140079 -0.058821
				}
			}
			JOINT heel.02.L
			{
				OFFSET 0.015355 0.000000 -0.292990
				CHANNELS 3 Xrotation Yrotation Zrotation
				End Site
				{
					OFFSET 0.075119 0.031301 -0.058955
				}
			}
		}
	}
	JOINT thigh.R
	{
		OFFSET -0.090921 0.000000 0.000000
		CHANNELS 6 Xposition Yposition Zposition Xrotation Yrotation Zrotation
		JOINT shin.R
		{
			OFFSET -0.016998 0.000000 -0.324336
			CHANNELS 6 Xposition Yposition Zposition Xrotation Yrotation Zrotation
			JOINT foot.R
			{
				OFFSET -0.015517 0.000000 -0.296075
				CHANNELS 3 Xrotation Yrotation Zrotation
				End Site
				{
					OFFSET -0.014273 -0.145529 -0.061110
				}
			}
			JOINT heel.02.R
			{
				OFFSET -0.015517 0.000000 -0.296075
				CHANNELS 3 Xrotation Yrotation Zrotation
				End Site
				{
					OFFSET -0.070971 0.031301 -0.055085
				}
			}
		}
	}
}
MOTION
Frames: 7
Frame Time: 0.041667
-0.012586 -0.012909 0.674641 -0.000000 0.000000 -12.930237 -0.000000 0.000000 0.000000 -3.923060 -5.245338 -0.455674 9.877619 -1.306265 -10.702860 0.000000 0.029521 0.240430 21.104552 -6.480420 -29.327159 0.000000 0.003156 0.180812 -6.655137 -0.000000 0.000001 -0.000000 0.029521 0.240431 -1.045612 0.001172 0.128383 0.145036 -0.000000 0.000000 35.961858 74.390227 -46.275843 0.246650 0.000105 0.000870 1.770211 10.865749 -17.472309 -0.000000 0.029521 0.240431 -0.992069 0.001054 0.121790 -0.145036 0.000000 0.000000 16.294470 -75.156629 21.088532 -0.244526 0.000105 0.000870 0.746346 -4.276061 20.800045 0.000000 0.000000 0.000000 -4.782655 -0.000001 -0.000028 0.000000 0.000000 0.000000 -4.782656 -0.000000 0.000000 0.090604 0.000000 0.007581 5.733531 3.753514 0.112899 0.016946 0.000000 -0.323345 1.635995 2.286342 0.053154 -2.321390 -12.303298 26.196238 -26.482593 53.792924 42.457460 -0.090604 -0.000000 -0.007581 0.507975 -6.889330 0.003969 -0.016998 -0.000000 -0.324336 5.678936 -0.066365 -0.294580 -6.169199 6.939780 -12.838923 -25.299849 -51.623434 -41.408213 
-0.008051 -0.014180 0.673522 -0.000000 0.000000 -9.756759 0.000000 0.000000 0.000000 -4.684931 -5.026092 -0.470312 9.895173 -1.209950 -9.905359 0.000000 0.029521 0.240430 20.439754 -6.276558 -23.803030 0.000000 0.003156 0.180812 -7.254088 0.000002 0.000007 0.000000 0.029521 0.240431 -1.194362 0.001529 0.146602 0.145035 0.000000 0.000000 35.146712 74.746059 -45.012555 0.246650 0.000105 0.000870 1.632489 9.895399 -17.829167 0.000000 0.029521 0.240431 -1.140865 0.001394 0.140046 -0.145036 -0.000000 -0.000000 14.790163 -75.220539 19.139891 -0.244526 0.000105 0.000870 0.596166 -3.755808 19.202950 0.000000 0.000000 0.000000 -4.169627 -0.000000 -0.000015 0.000000 0.000000 0.000000 -4.169664 -0.000000 0.000000 0.090680 -0.000000 0.006611 5.480005 3.867724 0.102422 0.016946 0.000000 -0.323345 1.558542 2.170663 0.052210 -3.992985 -11.329065 22.955636 -25.766913 53.463599 42.105306 -0.090680 0.000000 -0.006611 0.904838 -6.615688 0.004891 -0.016998 -0.000000 -0.324336 5.667197 -0.057702 -0.294397 -6.368920 7.944076 -14.732126 -25.680046 -51.972006 -42.547557 
-0.003592 -0.016088 0.672237 -0.000000 0.000000 -6.492947 -0.000000 0.000000 -0.000000 -5.386781 -4.707541 -0.469589 9.908935 -1.128471 -9.231936 0.000000 0.029521 0.240430 18.971796 -6.313834 -18.087972 0.000000 0.003156 0.180812 -6.343498 0.000005 -0.000001 -0.000000 0.029521 0.240431 -1.477335 0.002339 0.181441 0.145036 0.000000 -0.000000 33.749126 75.585995 -42.705314 0.246650 0.000105 0.000870 1.494849 9.039923 -17.995639 -0.000000 0.029521 0.240431 -1.423794 0.002173 0.174847 -0.145036 -0.000000 0.000000 13.761809 -75.000566 17.890415 -0.244526 0.000105 0.000870 0.481152 -3.291793 18.029111 0.000000 0.000000 -0.000000 -3.291229 -0.000001 -0.000020 0.000000 0.000000 -0.000000 -3.291230 0.000000 -0.000000 0.090771 0.000000 0.005220 5.534545 3.999644 0.097054 0.016946 0.000000 -0.323345 0.947290 2.036414 0.032840 -4.715259 -10.210993 20.216175 -24.689920 52.950789 41.561722 -0.090771 -0.000000 -0.005220 1.336024 -6.299090 0.003507 -0.016998 -0.000000 -0.324336 5.847569 -0.198759 -0.296599 -6.413846 9.142189 -17.062876 -27.419198 -52.820807 -43.799636 
0.000861 -0.018062 0.670419 -0.000000 0.000000 -3.358152 -0.000000 0.000000 0.000000 -6.078097 -4.237463 -0.448497 9.922020 -1.044654 -8.540727 0.000000 0.029521 0.240430 17.552572 -6.297218 -14.155410 -0.000000 0.003156 0.180812 -4.679443 0.000001 0.000011 0.000000 0.029521 0.240431 -1.898367 0.003860 0.233016 0.145035 -0.000000 0.000000 32.032740 76.606391 -39.932571 0.246650 0.000105 0.000870 1.162973 7.468768 -17.119591 0.000000 0.029521 0.240431 -1.844869 0.003646 0.226480 -0.145036 0.000000 0.000000 12.425417 -74.638299 16.271425 -0.244526 0.000105 0.000870 0.437115 -3.110229 17.492143 0.000000 0.000000 0.000000 -2.313645 0.000002 0.000078 0.000000 0.000000 0.000000 -2.313645 0.000000 0.000000 0.090847 -0.000000 0.003670 5.773153 4.149049 0.093694 0.016946 -0.000000 -0.323345 0.136323 1.919405 0.004866 -4.421374 -9.266360 18.493307 -24.111976 52.658665 41.221619 -0.090847 0.000000 -0.003670 1.831150 -6.033140 0.000532 -0.016998 -0.000000 -0.324336 5.872601 -0.345755 -0.290350 -5.933006 10.291536 -19.600420 -30.045312 -53.922493 -45.105572 
0.005193 -0.019371 0.668364 -0.000000 0.000000 -0.806609 0.000000 -0.000000 -0.000000 -6.653653 -3.738319 -0.414631 9.940592 -0.912459 -7.453131 0.000000 0.029521 0.240430 16.492788 -6.089892 -12.528092 0.000000 0.003156 0.180812 -3.086390 -0.000002 0.000003 -0.000000 0.029521 0.240431 -2.331994 0.005828 0.286258 0.145036 0.000000 -0.000000 30.134450 77.607007 -37.014766 0.246650 0.000105 0.000870 0.796949 5.600367 -15.977754 -0.000000 0.029521 0.240431 -2.278497 0.005563 0.279699 -0.145036 -0.000000 0.000000 11.568925 -74.385569 15.226775 -0.244526 0.000105 0.000870 0.447580 -3.208311 17.218613 0.000000 -0.000000 -0.000000 -1.450166 -0.000001 -0.000055 0.000000 -0.000000 -0.000000 -1.450204 0.000000 0.000000 0.090892 -0.000000 0.002301 5.980267 4.302168 0.089044 0.016946 0.000000 -0.323345 -0.410166 1.840931 -0.014919 -4.046116 -8.667718 17.496081 -24.584057 52.884877 41.430435 -0.090892 -0.000000 -0.002301 2.236441 -5.818360 -0.003564 -0.016998 -0.000000 -0.324336 5.748267 -0.454325 -0.278754 -5.149497 11.168138 -21.833610 -32.251631 -54.769668 -46.103213 
0.009482 -0.019365 0.666552 -0.000000 0.000000 0.829068 0.000000 0.000000 0.000000 -7.021863 -3.400723 -0.388233 9.966211 -0.688545 -5.617128 0.000000 0.029521 0.240430 15.604237 -5.550145 -12.069035 0.000000 0.003156 0.180812 -1.803808 0.000002 -0.000002 0.000000 0.029521 0.240431 -2.599756 0.007240 0.319055 0.145036 0.000000 0.000000 26.876608 78.397861 -32.663095 0.246650 0.000105 0.000870 0.615564 4.515704 -15.693961 0.000000 0.029521 0.240431 -2.546210 0.006946 0.312527 -0.145036 -0.000000 0.000000 11.645641 -74.409761 15.320347 -0.244526 0.000105 0.000870 0.492257 -3.494813 17.073043 0.000000 -0.000000 -0.000000 -0.861498 -0.000000 0.000021 0.000000 -0.000000 -0.000000 -0.861460 -0.000000 0.000000 0.090911 -0.000000 0.001367 6.101428 4.499196 0.080321 0.016946 -0.000000 -0.323345 -0.754867 1.769793 -0.027925 -4.199920 -8.352846 16.756703 -25.575271 53.389827 42.100579 -0.090911 0.000000 -0.001367 2.304144 -5.566911 -0.008754 -0.016998 0.000000 -0.324336 5.831495 -0.560441 -0.277405 -4.511095 11.737204 -23.404268 -33.231886 -55.120699 -46.467532 
0.014115 -0.017988 0.665078 -0.000000 0.000000 1.832896 -0.000000 0.000000 0.000000 -7.255341 -3.247865 -0.377480 9.988660 -0.398029 -3.243492 0.000000 0.029521 0.240431 14.862358 -4.646566 -11.241901 -0.000000 0.003156 0.180812 -0.965951 -0.000002 0.000001 0.000000 0.029521 0.240431 -2.666464 0.007615 0.327177 0.145036 -0.000000 0.000000 21.224927 78.861125 -25.686736 0.246650 0.000105 0.000870 0.579655 4.107270 -16.577825 0.000000 0.029521 0.240431 -2.612917 0.007312 0.320648 -0.145036 -0.000000 -0.000000 12.126318 -74.604927 15.892397 -0.244526 0.000105 0.000870 0.558883 -3.854565 17.289039 -0.000000 0.000000 -0.000000 -0.534954 -0.000000 0.000004 -0.000000 0.000000 -0.000000 -0.534954 -0.000000 0.000000 0.090917 -0.000000 0.000849 6.178961 4.740480 0.068279 0.016946 0.000000 -0.323345 -1.240299 1.789287 -0.045672 -4.483244 -8.138406 16.153042 -25.880044 53.603717 42.670982 -0.090917 -0.000000 -0.000849 1.998229 -5.209206 -0.013857 -0.016998 -0.000000 -0.324336 6.335015 -0.702116 -0.293581 -4.156732 12.134142 -24.451522 -33.444356 -55.173114 -46.326168 
